<svg version="1.1" xmlns="http://www.w3.org/2000/svg" xmlns:xlink="http://www.w3.org/1999/xlink" width="78.25897" height="85.90088" viewBox="0,0,78.25897,85.90088"><g transform="translate(-205.77412,-135.074)"><g data-paper-data="{&quot;isPaintingLayer&quot;:true}" fill-rule="nonzero" stroke-miterlimit="10" stroke-dasharray="" stroke-dashoffset="0" style="mix-blend-mode: normal"><g><g stroke-linecap="butt" stroke-linejoin="miter"><g stroke="none" stroke-width="1"><path d="M265.68235,148.14836c1.50302,4.21441 -3.80194,6.99084 -6.74435,7.17996c-8.67668,0.55591 -12.10674,-3.27064 -12.10674,-3.27064c0,0 -0.41813,-1.87358 0.49169,-4.80473c0.38242,-1.23211 0.99798,-2.65457 1.98075,-4.20231c2.63696,-4.15209 6.94581,-5.45116 9.60853,-4.35424c0.68819,0.28339 1.26959,0.72736 1.67964,1.32543c1.95623,2.84123 -1.27145,6.18008 -1.40865,6.31991c0.17817,-0.10077 4.87504,-2.73799 6.49912,1.80724z" fill="#e800cd"/><g fill="#ffffff" opacity="0.62"><path d="M263.32123,146.4985c0.11841,0.48774 -0.58935,1.07781 -1.58084,1.31793c-0.99149,0.24013 -1.89124,0.0394 -2.00965,-0.44835c-0.11841,-0.48775 0.58936,-1.07781 1.58084,-1.31793c0.99149,-0.24013 1.89124,-0.0394 2.00964,0.44835z"/></g><g fill="#ffffff" opacity="0.62"><path d="M261.32974,142.01509c-0.02514,-0.03968 -0.0506,-0.07906 -0.07791,-0.11813c-0.41037,-0.59807 -0.99146,-1.04204 -1.67965,-1.32543c-0.31413,-0.12866 -0.65124,-0.22448 -1.00574,-0.28649c-0.74281,-0.1299 -1.48408,0.16897 -1.94008,0.77078c-0.40571,0.53513 -1.16871,1.12793 -2.12168,1.59703c-0.90113,0.44429 -1.78084,0.6855 -2.43674,0.70597c-0.61742,0.01922 -1.19199,0.29175 -1.56728,0.79092c-0.18532,0.24649 -0.36442,0.50537 -0.53701,0.77603c-0.98277,1.54774 -1.59832,2.9699 -1.98075,4.20232c-0.49231,1.58525 -0.59599,2.86076 -0.58575,3.69725c-0.29769,-0.24493 -0.43706,-0.40213 -0.43706,-0.40213c0,0 -0.41813,-1.87358 0.49169,-4.80472c0.38243,-1.23211 0.99798,-2.65458 1.98075,-4.20232c2.63696,-4.15208 6.9455,-5.45117 9.60853,-4.35423c0.68819,0.28337 1.26959,0.72735 1.67965,1.32543c0.36722,0.53297 0.55161,1.0836 0.60903,1.62772z"/></g><g fill="#02025c" opacity="0.2"><path d="M265.68235,148.14836c1.50302,4.21441 -3.80194,6.99084 -6.74435,7.17996c-8.67668,0.55591 -12.10674,-3.27064 -12.10674,-3.27064c0,0 -0.41813,-1.87358 0.49169,-4.80473c1.96647,0.70566 7.42695,-0.28369 10.79804,-3.19777c1.92643,-1.66524 2.47089,-4.03366 2.47089,-4.03366c1.22086,0.87742 0.90331,4.20883 -1.40865,6.31991c0.08506,-0.04899 1.19727,-0.67341 2.51404,-0.81944c-0.24863,0.03565 -0.50007,0.09673 -0.7512,0.18416c-1.60359,0.55808 -2.56122,1.98334 -2.13875,3.18475c0.42248,1.20142 2.06456,1.72136 3.66816,1.16328c1.60545,-0.55901 2.56339,-1.98397 2.14061,-3.18538c-0.24802,-0.70534 -0.91541,-1.17506 -1.74763,-1.33071c1.10445,0.17456 2.1881,0.85789 2.81358,2.61057z"/></g><path d="M257.23073,155.99677c-7.60048,0 -10.71919,-3.37481 -10.85733,-3.52891c-0.07015,-0.07813 -0.11889,-0.173 -0.14186,-0.27532c-0.03694,-0.16432 -0.8614,-4.08884 2.55408,-9.46962c2.30203,-3.62657 5.63928,-4.96596 7.99531,-5.01029c1.85752,-0.03411 3.43473,0.68023 4.31723,1.96133c1.3174,1.91296 0.64938,3.9546 -0.16886,5.35723c0.84309,-0.19006 1.84075,-0.25176 2.78814,0.09332c1.17243,0.42693 2.02793,1.37535 2.54259,2.8186c0.52832,1.48045 0.3486,2.95966 -0.51964,4.27672c-1.41487,2.14705 -4.54942,3.57728 -6.76266,3.71958c-0.60655,0.03907 -1.1895,0.05736 -1.74731,0.05736zM247.4049,151.76345c0.65932,0.61264 4.11794,3.42628 11.4943,2.95223c1.87148,-0.1203 4.62733,-1.36635 5.81559,-3.16988c0.65745,-0.9974 0.78814,-2.07108 0.38833,-3.19095c-0.38553,-1.08111 -0.99208,-1.77964 -1.80257,-2.07666c-1.68337,-0.61667 -3.79232,0.58598 -3.81374,0.59807c-0.26633,0.1544 -0.60655,0.08774 -0.79497,-0.15595c-0.18812,-0.24369 -0.16638,-0.58877 0.05122,-0.80673c0.0298,-0.03007 3.02684,-3.09888 1.34285,-5.5445c-0.64442,-0.93602 -1.84199,-1.45658 -3.28232,-1.43022c-2.03662,0.03814 -4.94023,1.22467 -6.9812,4.44074c-2.7456,4.32602 -2.51807,7.62612 -2.41812,8.38386z" fill="#02025c"/></g><g stroke="none" stroke-width="1"><path d="M234.62301,165.78016c0,0 -2.67359,16.98413 -8.87565,21.47076c-1.31956,0.95431 -2.8319,1.49658 -4.38831,1.65501c-0.57427,0.05798 -1.15474,0.06417 -1.73211,0.01891c-5.22767,-0.40584 -10.33459,-4.96749 -9.81527,-12.67608c0.29955,-4.4488 1.92674,-7.28848 3.77028,-9.09231c2.75834,-2.70017 5.99967,-3.084 5.99967,-3.084c2.28433,-7.47822 7.55609,-9.82711 10.76452,-9.6141c1.11252,0.07379 2.13534,0.6362 2.93713,1.62338c1.5142,1.86181 2.24832,5.23259 1.34005,9.69875z" fill="#780091"/><path d="M220.37225,189.51888c-1.76563,0 -3.56447,-0.44956 -5.20532,-1.35675c-4.06362,-2.24719 -6.27935,-6.71521 -5.92641,-11.95151c0.40168,-5.96336 3.16218,-9.10099 5.40678,-10.68344c1.89663,-1.33691 3.72682,-1.81096 4.49354,-1.96133c2.27285,-7.00913 7.39529,-9.93531 11.24255,-9.67829c1.32267,0.08806 2.5516,0.79154 3.46049,1.98117c1.69454,2.21773 2.18376,5.86662 1.34285,10.01344c-0.1372,0.86626 -2.81482,17.28332 -9.10442,21.83226c-1.6576,1.19894 -3.66164,1.80476 -5.71037,1.80476zM229.9755,155.01765c-2.6112,0 -7.60357,1.87948 -9.846,9.22067c-0.06612,0.21703 -0.25454,0.37421 -0.48021,0.40088c-0.02048,0.00248 -2.17879,0.28152 -4.38459,1.8525c-2.94241,2.09558 -4.5848,5.39102 -4.88156,9.79518c-0.32221,4.7824 1.67344,8.84737 5.33849,10.87412c3.15753,1.74616 6.96102,1.59951 9.68924,-0.3736c5.94131,-4.29719 8.62049,-20.92849 8.64657,-21.09622c0.00124,-0.00837 0.00279,-0.01674 0.00466,-0.02511c0.77852,-3.82841 0.36753,-7.14679 -1.12835,-9.1044c-0.71581,-0.93664 -1.62408,-1.46712 -2.6264,-1.53409c-0.10554,-0.00713 -0.21667,-0.01086 -0.33183,-0.01086z" fill="#02025c"/><path d="M220.12733,164.24545c-0.53267,1.52479 -0.73196,3.19282 -0.55564,4.80225c0.04159,0.34818 -0.4619,0.43995 -0.54415,0.09797c-0.34859,-1.49596 -0.36753,-3.05919 -0.12634,-4.57499c0.03787,-0.22292 0.0745,-0.43003 0.13503,-0.67311c0.22536,-0.77293 1.35526,-0.41483 1.09079,0.34787v0z" fill="#02025c"/></g><path d="M244.98306,219.05167c-16.55403,-2.09216 -24.68904,-15.65374 -25.35581,-30.12714c-0.23839,-5.1464 0.46904,-10.4103 2.08039,-15.31208c0.04377,-0.13486 0.08785,-0.26942 0.13503,-0.40429c0.59165,-1.74584 1.29908,-3.44457 2.12136,-5.0726c2.39577,-4.74986 5.16652,-8.34634 8.12259,-11.02605c0.39547,-0.35872 0.79559,-0.70194 1.19696,-1.0281c6.96785,-5.66045 14.79989,-6.55212 21.13388,-5.63379c8.609,1.2504 13.08051,5.34235 15.70071,10.91784c2.4681,5.24809 3.29472,11.81262 4.38676,18.55728c0.6826,4.22184 1.47012,8.51407 2.83035,12.59951c0.08164,0.24772 0.16638,0.49359 0.25267,0.73976c4.36317,12.38309 -7.95155,28.9034 -32.60458,25.78965z" fill="#780091" stroke="none" stroke-width="1"/><g fill="#02025c" stroke="none" stroke-width="1" opacity="0.2"><path d="M276.57848,191.8411c0.08164,0.24773 0.16638,0.4939 0.25269,0.73977c4.36316,12.3834 -7.95155,28.9034 -32.60458,25.78965c-6.73317,-0.85076 -12.07322,-3.59929 -16.08469,-7.53465c-5.13176,-5.66572 -7.80286,-13.41523 -8.17287,-21.44689c-0.34705,-0.02697 -0.69347,-0.07379 -1.03803,-0.13703c-2.32562,-0.42724 -4.55128,-1.67794 -6.1853,-3.65788c-1.76873,-2.14363 -2.84401,-5.14081 -2.59195,-8.88148c0.1251,-1.85778 0.48208,-3.43403 0.98928,-4.77218c0.70712,-1.86646 1.70696,-3.2694 2.78068,-4.31982h0.00155c0,0 -3.51295,7.74734 -1.06472,11.56304c0.27565,0.42941 0.62486,0.80952 1.06472,1.12266c4.3492,3.09671 6.37931,-4.18092 7.52008,-10.74545c1.07434,-6.18256 7.01907,-13.15356 10.27313,-13.46793c0.66708,-0.06449 1.22148,0.15036 1.59739,0.70968c0.00155,0 -0.88623,0.77325 -0.88623,0.77325c0,0 -7.57347,8.40587 -10.24551,16.0971c-0.04718,0.13487 -0.09126,0.26942 -0.13503,0.40429c-0.26354,0.80549 -0.46904,1.60323 -0.60407,2.37896c-0.51125,2.95068 -0.66677,7.81959 0.25578,12.9142c0.85891,4.75234 2.65652,9.70031 5.97794,13.46856c3.11407,3.53324 7.5685,6.0297 13.84568,6.35494c20.15173,1.04361 28.71665,-6.87146 27.55726,-15.06899c0,0 -0.3964,-0.03472 -1.00636,-0.13797c-0.01459,-0.33515 -0.04439,-0.67093 -0.09188,-1.00764c0,0 -3.71814,-0.32492 -5.91927,-1.95575c-0.17601,-0.27903 -0.31072,-0.58226 -0.39268,-0.91214c-0.85643,-3.43961 3.64798,-5.7888 3.64798,-5.7888c0,0 -0.06115,-0.04062 -0.17104,-0.12216c-0.01862,-0.01426 -0.03911,-0.02821 -0.0596,-0.04403c-0.22474,-0.16742 -0.60034,-0.46135 -1.06068,-0.87122c0.1223,-0.07131 0.19308,-0.10821 0.19308,-0.10821c0,0 -0.06115,-0.04061 -0.17104,-0.12215c-0.01863,-0.01395 -0.03911,-0.02791 -0.0596,-0.04372c-0.30513,-0.22726 -0.88716,-0.68581 -1.5859,-1.35674c-1.61912,-1.83112 -3.40306,-4.55266 -3.8929,-8.00623c-0.10274,-0.71093 -0.14776,-1.45286 -0.12602,-2.22424c0.68353,1.16327 1.71255,2.64373 3.11128,3.96141c1.9078,2.19634 4.74622,4.32292 8.61863,4.40571c1.88266,0.04092 3.44404,0.24927 4.73039,0.59714c1.38662,0.37484 2.45413,0.90998 3.26866,1.56478c0.85549,1.1794 1.19354,2.58978 1.23576,4.08947c0.10988,3.91614 -2.7723,5.79965 -2.7723,5.79965z"/></g><path d="M250.92748,220.00908c-1.9466,0 -3.95281,-0.1299 -6.01581,-0.39065c-4.99579,-0.63094 -9.44185,-2.31634 -13.21523,-5.00905c-3.48657,-2.48809 -6.33926,-5.78539 -8.47894,-9.80014c-2.82135,-5.29336 -4.27532,-11.61729 -4.20548,-18.28755c0.06891,-6.5729 1.60453,-13.01931 4.44109,-18.64286c3.81002,-7.55357 8.87751,-12.85964 15.06219,-15.77093c6.10148,-2.87193 12.0605,-2.79565 15.98442,-2.2258c16.20917,2.35384 18.15018,14.64579 20.20513,27.65982c0.81793,5.1805 1.66412,10.53772 3.42323,15.53127c1.95965,5.56185 0.6587,11.93974 -3.47973,17.0607c-2.83407,3.5069 -6.8468,6.2458 -11.60387,7.92035c-3.69702,1.30155 -7.75537,1.9545 -12.11698,1.9545zM250.13592,150.709c-7.6073,0 -18.27838,3.04896 -25.66032,17.68452c-5.63307,11.16804 -5.7324,25.58657 -0.2474,35.87812c3.01908,5.66448 9.08269,12.72848 20.82718,14.21173c12.32527,1.55672 22.78621,-1.74833 28.70176,-9.06812c3.88731,-4.8103 5.11747,-10.7777 3.291,-15.96285c-1.79419,-5.09183 -2.64845,-10.50146 -3.47446,-15.73249c-1.02653,-6.50004 -1.99595,-12.63982 -4.64658,-17.43152c-2.9362,-5.30824 -7.57284,-8.2552 -14.59222,-9.2743c-1.23793,-0.17983 -2.6559,-0.30539 -4.19897,-0.30539z" fill="#02025c" stroke="none" stroke-width="1"/><g stroke="none" stroke-width="1"><path d="M282.96586,186.09446c-1.02779,3.36303 -3.16622,5.34389 -5.63089,6.42811c-3.73894,1.64694 -8.22906,1.23489 -10.73782,0.45607l4.73815,-5.87965c0,0 -3.13797,-0.96206 -6.35757,-3.24088h-0.00155c-0.00466,-0.00465 -0.02204,-0.01581 -0.04873,-0.03442c-0.01397,-0.01085 -0.0298,-0.02201 -0.04377,-0.03286c-0.02204,-0.01427 -0.04873,-0.03287 -0.07698,-0.05488c-0.01893,-0.01395 -0.03911,-0.02822 -0.0596,-0.04403c-3.04857,-2.21432 -6.1049,-5.61797 -6.57704,-10.50889c0,-0.0031 -0.00155,-0.00775 -0.00155,-0.01085c-0.01893,-0.18323 -0.03291,-0.36988 -0.04222,-0.55777c-0.04563,-0.84952 -0.03135,-1.65811 0.03446,-2.42267v-0.00155c0.74996,-8.80087 8.29828,-12.01321 10.01611,-8.18791c0,0 6.3166,-4.15892 7.0352,8.60492c0,0 10.33801,7.0268 7.75382,15.48755z" fill="#780091"/><g fill="#02025c" opacity="0.2"><path d="M277.33497,192.52257c-3.73894,1.64694 -8.22906,1.23489 -10.73782,0.45607l4.73815,-5.87965c0,0 -3.13797,-0.96206 -6.35757,-3.24088h-0.00155c-0.00466,-0.00465 -0.02204,-0.01581 -0.04873,-0.03442c-0.01397,-0.01085 -0.0298,-0.02201 -0.04377,-0.03286c-0.02204,-0.01427 -0.04873,-0.03287 -0.07698,-0.05488c-0.01893,-0.01395 -0.03911,-0.02822 -0.0596,-0.04403c-1.09358,-0.8148 -5.73768,-4.58832 -6.57704,-10.50889c0,-0.0031 -0.00155,-0.00775 -0.00155,-0.01085c-0.14124,-0.98408 -0.17414,-2.02768 -0.06891,-3.12648c0,0 0.02048,0.05178 0.06115,0.14417v0.00155c0.50038,1.16762 4.12322,8.9748 11.6135,9.13447c1.88266,0.04061 3.44372,0.24928 4.73039,0.59714c4.24553,1.14716 5.51791,3.79399 5.60265,6.79955c0.10988,3.91615 -2.7723,5.79965 -2.7723,5.79965z"/></g><path d="M271.22851,187.44687c-3.29224,-0.86564 -6.30481,-2.62823 -8.80829,-4.91449c-1.58063,-1.45037 -2.9092,-3.20925 -3.78612,-5.17151c-0.51715,-1.19025 -0.86916,-2.46267 -1.03895,-3.74748c-0.018,-0.20742 -0.07388,-0.76767 -0.08971,-0.97013c-0.01335,-0.21176 -0.01521,-0.74596 -0.02638,-0.96237c0.00465,-1.93156 0.2983,-3.89413 1.01442,-5.69641c1.03181,-2.64249 3.01287,-5.13152 5.82738,-5.977c1.75601,-0.49948 3.59583,-0.00341 4.37745,1.76043c0.00062,0 -0.84029,-0.24339 -0.83687,-0.24401c0.16048,-0.10541 0.28496,-0.16246 0.44513,-0.24276c1.70634,-0.83991 3.70602,-0.62939 4.99424,0.8244c1.94784,2.23106 2.26788,5.65145 2.48238,8.46912l-0.24958,-0.44057c0.35728,0.24153 0.67514,0.48026 1.0017,0.73139c2.25267,1.77623 4.257,3.86251 5.72061,6.35711c1.74917,2.97858 2.3762,6.42812 1.1091,9.71798c-1.81406,5.11136 -6.87286,7.46118 -12.05397,7.21965c-0.81795,-0.03162 -1.63122,-0.13611 -2.43271,-0.29764c-0.79901,-0.1637 -1.5859,-0.39407 -2.33369,-0.71713c-0.19214,-0.08805 -0.09747,-0.3705 0.10337,-0.33267c5.08488,0.86626 11.48343,0.43344 14.51307,-4.30308c1.28728,-2.05899 1.87147,-4.5536 1.37667,-6.95177c-0.91044,-4.28758 -4.24117,-7.88469 -7.64951,-10.4785c-0.15087,-0.10449 -0.23716,-0.27036 -0.24864,-0.44026c-0.07109,-1.12421 -0.18067,-2.2444 -0.37933,-3.33947c-0.30917,-1.58679 -0.7332,-3.20987 -1.79978,-4.41687c-1.04393,-1.19831 -2.68321,-1.17847 -3.96957,-0.40305c-0.29241,0.18603 -0.69067,0.06945 -0.8375,-0.24369c-0.45072,-0.98996 -1.44467,-1.36263 -2.47928,-1.18994c-1.88824,0.31624 -3.41485,1.74523 -4.45816,3.29916c-1.75042,2.66172 -2.22939,5.99189 -1.89321,9.11618c0.58327,4.95387 4.12292,8.65204 8.27841,11.09084c1.38569,0.82626 2.85829,1.57191 4.3402,2.19851c0.41968,0.15936 0.23064,0.79898 -0.21387,0.69605v0z" fill="#02025c"/><path d="M274.96434,171.1222c-1.23792,-0.61141 -2.56867,-1.09755 -3.90376,-1.46588c-1.35185,-0.37545 -2.74467,-0.60335 -4.14712,-0.64086c-0.16794,-0.0062 -0.29862,-0.14727 -0.29242,-0.3147c0.00621,-0.16091 0.13721,-0.2874 0.29583,-0.29206c1.45895,-0.05209 2.92099,0.09517 4.34765,0.39623c1.07093,0.22231 2.12603,0.51747 3.15721,0.88393c0.34766,0.12371 0.68105,0.24959 1.03771,0.40213c0.29086,0.12463 0.42558,0.46103 0.3011,0.75155c-0.13007,0.30694 -0.50256,0.43716 -0.79622,0.27966z" fill="#02025c"/></g><g stroke="none" stroke-width="1"><g><path d="M254.94422,220.40252c-0.81824,-0.02015 -1.42977,-0.18137 -1.88297,-0.4542c-1.80537,-1.07802 -1.14481,-3.8839 -1.19136,-6.292c-0.02545,-1.37721 -0.64969,-2.48438 -1.24848,-3.5348l-0.00187,-0.00217c-0.3638,-0.64024 -0.71891,-1.26094 -0.92068,-1.91079v-0.00186c-0.19401,-0.61482 -0.24802,-1.25412 -0.04408,-1.9604c0.68912,-2.38733 2.42557,-2.25122 3.562,-1.85654c0.37125,0.12774 0.67763,0.28245 0.86357,0.38786c0.12293,0.06697 0.19339,0.11348 0.19339,0.11348c1.16559,-1.92847 3.33632,-1.94489 4.68321,-0.46972v0.00186c0.70774,0.77232 1.19074,1.95761 1.18174,3.49047c-0.02421,4.45593 -2.06114,12.56106 -5.19414,12.48944z" fill="#f99639"/><g fill="#ffffff" opacity="0.62"><path d="M260.06449,209.4419c0.00466,-0.13982 0.00714,-0.27811 0.00745,-0.41266c0.009,-1.53255 -0.474,-2.71814 -1.18205,-3.49046v-0.00186c-1.34657,-1.47517 -3.5173,-1.45875 -4.6829,0.47003c0,0 -0.07047,-0.04651 -0.19339,-0.11348c-0.18594,-0.1051 -0.49231,-0.25981 -0.86357,-0.38786c-1.13642,-0.39437 -2.87288,-0.53079 -3.56199,1.85654c-0.01459,0.05116 -0.02917,0.10201 -0.04004,0.15316c-0.04719,-0.40244 -0.02204,-0.82347 0.10678,-1.26931c0.68912,-2.38733 2.42557,-2.25122 3.562,-1.85654c0.37125,0.12774 0.67763,0.28245 0.86357,0.38786c0.12293,0.06697 0.19339,0.11348 0.19339,0.11348c1.16559,-1.92847 3.33632,-1.9449 4.68321,-0.46972v0.00186c0.70774,0.77231 1.19074,1.95761 1.18174,3.49047c-0.00341,0.4725 -0.02824,0.98779 -0.07419,1.52881z"/></g><path d="M254.98613,220.97456c-0.01863,0 -0.03725,0 -0.05618,-0.00062v0c-1.24973,-0.02915 -2.1583,-0.36492 -2.77727,-1.02686c-1.05509,-1.12855 -0.97345,-2.92867 -0.89461,-4.66924c0.02452,-0.537 0.04966,-1.0926 0.04005,-1.61191c-0.02267,-1.23987 -0.614,-2.27789 -1.18609,-3.2818c-0.7332,-1.2873 -1.49153,-2.61831 -1.00729,-4.29564c0.34859,-1.20731 0.98277,-1.98861 1.88576,-2.32252c1.16095,-0.42941 2.43022,0.04031 3.10848,0.37421c0.88871,-1.12391 2.19648,-1.58742 3.52133,-1.21506c1.4369,0.40367 3.10848,1.95296 3.0914,4.99106c-0.02048,3.59805 -1.32143,9.81688 -3.71068,12.13539c-0.63138,0.61264 -1.30901,0.92331 -2.01489,0.92331zM254.95664,219.83049c0.41006,0.00806 0.82663,-0.19222 1.24631,-0.59931c2.05525,-1.9942 3.34409,-7.93802 3.36333,-11.32152c0.01273,-2.2413 -1.12401,-3.56549 -2.25609,-3.88359c-0.98928,-0.2778 -1.94008,0.15626 -2.54601,1.15987c-0.08039,0.133 -0.2117,0.22788 -0.36318,0.2623c-0.15148,0.0344 -0.31103,0.00558 -0.44109,-0.07938c-0.01335,-0.00868 -1.46887,-0.94098 -2.57457,-0.52956c-0.54136,0.20152 -0.93807,0.72829 -1.17989,1.56572c-0.35046,1.21413 0.23002,2.23324 0.90238,3.41326c0.61306,1.07584 1.30777,2.29524 1.33571,3.82685c0.01025,0.55561 -0.01583,1.12948 -0.04098,1.68447c-0.07139,1.57346 -0.13876,3.0598 0.58792,3.83677c0.39764,0.42538 1.04113,0.64272 1.96678,0.66411v0z" fill="#02025c"/><path d="M254.73221,205.2337c-0.49201,1.05135 -0.17476,2.22115 0.1729,3.30041c0.36318,1.31334 0.76361,2.66636 0.53671,4.06279c-0.06426,0.33888 -0.56899,0.29826 -0.57488,-0.04805c-0.00621,-0.61233 -0.16017,-1.22652 -0.34766,-1.83917c-0.18749,-0.60985 -0.41658,-1.21723 -0.64969,-1.82584c-0.24895,-0.62443 -0.52987,-1.32822 -0.58234,-2.03511c-0.06891,-0.78472 0.0506,-1.63981 0.52863,-2.3002c0.46779,-0.59157 1.35402,0.06945 0.91664,0.6855v0z" fill="#02025c"/></g><g fill="#02025c" opacity="0.2"><path d="M257.94778,213.11776c-0.9151,2.72559 -1.17367,6.95208 -4.88653,6.83055c-1.80537,-1.07802 -1.14481,-3.8839 -1.19136,-6.292c-0.02545,-1.37721 -0.64969,-2.48438 -1.24848,-3.5348l-0.00187,-0.00217c-0.3638,-0.64024 -0.71891,-1.26094 -0.92068,-1.91079v-0.00186c0.27875,-1.50495 2.47462,-3.10322 4.12788,-1.12359c0,0 1.03088,-1.44294 2.81731,-1.11151c1.78612,0.33329 2.21914,4.41873 1.30374,7.14617z"/></g></g><g stroke="none" stroke-width="1"><g><path d="M226.04195,216.17757c-0.69936,0.24432 -1.26897,0.30291 -1.74018,0.21642c-1.87396,-0.33671 -2.21263,-2.92402 -3.0225,-4.9489c-0.46221,-1.15832 -1.34533,-1.89684 -2.18873,-2.59506l-0.00218,-0.00124c-0.51311,-0.4263 -1.01257,-0.83836 -1.39127,-1.32451l-0.00062,-0.00155c-0.36101,-0.45887 -0.61152,-0.98284 -0.66491,-1.64633c-0.18035,-2.24191 1.33385,-2.68093 2.42247,-2.70946c0.35542,-0.01023 0.66428,0.02294 0.8555,0.05271c0.12541,0.01736 0.19991,0.03442 0.19991,0.03442c0.37001,-2.00536 2.20332,-2.71257 3.81591,-1.89281l0.00062,0.00155c0.84649,0.42817 1.63526,1.27799 2.11795,2.57894c1.40555,3.78159 2.27378,11.29671 -0.4026,12.23614z" fill="#f99639"/><g fill="#ffffff" opacity="0.62"><path d="M226.87075,205.26005c-0.04098,-0.11999 -0.08319,-0.2378 -0.12572,-0.3519c-0.483,-1.30094 -1.27145,-2.15076 -2.11795,-2.57894l-0.00062,-0.00155c-1.6126,-0.81944 -3.4459,-0.11254 -3.81591,1.89312c0,0 -0.0745,-0.01705 -0.19991,-0.03441c-0.19121,-0.02976 -0.50007,-0.06294 -0.8555,-0.05271c-1.08862,0.02884 -2.60282,0.46755 -2.42247,2.70946c0.00404,0.04775 0.00807,0.0958 0.01521,0.14262c-0.16855,-0.32586 -0.28216,-0.69046 -0.31569,-1.10902c-0.18035,-2.24191 1.33385,-2.68094 2.42247,-2.70946c0.35543,-0.01024 0.66429,0.02294 0.8555,0.05271c0.12541,0.01737 0.19991,0.03442 0.19991,0.03442c0.37001,-2.00536 2.20332,-2.71256 3.81591,-1.89281l0.00062,0.00155c0.84649,0.42817 1.63526,1.27799 2.11795,2.57893c0.14838,0.40119 0.2921,0.84549 0.42651,1.3183z"/></g><path d="M224.72797,216.95113c-0.43675,0 -0.83346,-0.0896 -1.19602,-0.26818c-1.25469,-0.61915 -1.7616,-2.16937 -2.25174,-3.66873c-0.15148,-0.4629 -0.30793,-0.94129 -0.48208,-1.37815c-0.41595,-1.04298 -1.24911,-1.73345 -2.05462,-2.40097c-1.03306,-0.85602 -2.10119,-1.74119 -2.22784,-3.31652c-0.09095,-1.13382 0.19618,-1.99791 0.85395,-2.56901c0.84619,-0.73418 2.07232,-0.74162 2.75243,-0.67526c0.39329,-1.23552 1.35278,-2.04535 2.5935,-2.15325c1.34626,-0.1175 3.2581,0.66164 4.21541,3.24026c1.13394,3.05423 2.02234,8.73669 0.74064,11.46258c-0.34766,0.73945 -0.83842,1.22467 -1.45863,1.44231v0c-0.54198,0.19006 -1.03492,0.28493 -1.48502,0.28493zM226.04101,216.17757h0.00155zM219.57045,203.68163c-0.49511,0 -1.10663,0.08805 -1.5232,0.45111c-0.39392,0.34353 -0.56153,0.91648 -0.49821,1.70276c0.09157,1.14003 0.90951,1.81777 1.85627,2.60249c0.86357,0.71558 1.84199,1.52665 2.35573,2.81457c0.18656,0.46724 0.34829,0.96176 0.50442,1.43984c0.44327,1.3555 0.86171,2.63567 1.72559,3.06167c0.47307,0.23346 1.08738,0.21207 1.87831,-0.06541c0.34829,-0.12216 0.63883,-0.42662 0.86388,-0.90533c1.10259,-2.34485 0.2921,-7.79075 -0.77417,-10.66236c-0.7065,-1.90211 -2.09436,-2.66172 -3.1538,-2.5687c-0.92565,0.0803 -1.59304,0.75154 -1.78488,1.79515c-0.02545,0.13859 -0.10616,0.26044 -0.22381,0.33826c-0.11734,0.07751 -0.26137,0.10387 -0.3992,0.07348c-0.00683,-0.00155 -0.36629,-0.07782 -0.82694,-0.07782z" fill="#02025c"/><path d="M221.00828,203.39793c-0.0804,1.04763 0.56247,1.93684 1.20254,2.73985c0.36535,0.48367 0.72016,0.9816 1.0343,1.51673c0.31383,0.53111 0.60313,1.10871 0.72016,1.75298c0.05401,0.31253 -0.39671,0.43406 -0.50566,0.13456c-0.43427,-1.0495 -1.26742,-1.91513 -2.01427,-2.77736c-0.91944,-0.93199 -1.79357,-2.27261 -1.43287,-3.65479c0.20674,-0.65016 1.16902,-0.37329 0.9958,0.28803z" fill="#02025c"/></g><g fill="#02025c" opacity="0.2"><path d="M226.25458,209.04877c0.09716,2.60033 1.23079,6.26286 -1.95281,7.34522c-1.87396,-0.33671 -2.21263,-2.92402 -3.0225,-4.9489c-0.46221,-1.15832 -1.34533,-1.89684 -2.18873,-2.59506l-0.00218,-0.00124c-0.51311,-0.4263 -1.01257,-0.83836 -1.39127,-1.32451l-0.00062,-0.00155c-0.24554,-1.36357 1.1029,-3.41822 3.13642,-2.26921c0,0 0.4113,-1.55114 2.03041,-1.84073c1.61943,-0.28803 3.29348,3.03408 3.39095,5.63627z"/></g></g><g fill="#02025c" stroke="none" stroke-width="1"><path d="M226.85212,135.33275l0.95235,7.63418l-0.74747,-0.49327l4.17568,-1.35706c0.34611,-0.13611 0.74157,0.12711 0.74779,0.49824l0.27937,8.50757c0.0031,0.0958 -0.07202,0.1761 -0.16794,0.1792c-0.09033,0.0031 -0.1667,-0.06418 -0.17818,-0.15162l-1.07465,-8.44431l0.74779,0.49824c-0.02732,0.00682 -4.17227,1.35736 -4.19493,1.36325c-0.34114,0.11657 -0.71395,-0.14076 -0.72823,-0.49948l-0.40664,-7.68255c-0.01211,-0.37639 0.53763,-0.43188 0.59475,-0.0527v0z"/><path d="M213.94079,141.86534l3.89476,6.63708l-0.88189,-0.15812l3.29907,-2.89455c0.26447,-0.26136 0.73134,-0.17579 0.88437,0.16278l3.6219,7.70517c0.04098,0.08681 0.00342,0.19036 -0.0835,0.23098c-0.08163,0.03844 -0.17849,0.00682 -0.22381,-0.06914l-4.32747,-7.33313l0.88437,0.16278c-0.02235,0.01705 -3.29566,2.89332 -3.31428,2.90789c-0.26727,0.24184 -0.71178,0.15254 -0.86667,-0.17146l-3.41237,-6.8969c-0.16173,-0.33857 0.32687,-0.60955 0.52553,-0.28307v0z"/><path d="M206.22702,153.55891l6.58945,3.98342l-0.85084,0.28028l1.52072,-4.11458c0.10772,-0.35562 0.55937,-0.50258 0.85519,-0.27749l6.85889,5.05215c0.0773,0.05705 0.09374,0.16556 0.03663,0.24277c-0.0537,0.07255 -0.15365,0.09084 -0.22971,0.04558l-7.30185,-4.38928l0.85519,-0.27749c-0.01149,0.02574 -1.51824,4.11209 -1.52755,4.13349c-0.11982,0.3398 -0.55316,0.47251 -0.84401,0.26168l-6.28929,-4.44136c-0.30358,-0.22075 -0.0031,-0.6914 0.32718,-0.49886v0z"/></g><g stroke="#1b1464"><path d="M242.12477,166.96452c0,2.11557 -3.65467,3.83058 -8.16294,3.83058c-4.50827,0 -8.16294,-1.71501 -8.16294,-3.83058c0,-2.11557 3.65467,-3.83057 8.16294,-3.83057c4.50827,0 8.16294,1.71501 8.16294,3.83057z" fill="#1b1464" stroke-width="0.2891"/><path d="M241.33166,166.9205c0,1.75804 -3.31585,3.1832 -7.40615,3.1832c-4.09031,0 -7.40615,-1.42517 -7.40615,-3.1832c0,-1.75804 3.31585,-3.1832 7.40615,-3.1832c4.09031,0 7.40615,1.42517 7.40615,3.1832z" fill="#ffffff" stroke-width="0.25074"/></g><g stroke="#1b1464"><path d="M258.32246,167.23551c0,2.11557 -3.65467,3.83057 -8.16294,3.83057c-4.50827,0 -8.16294,-1.715 -8.16294,-3.83057c0,-2.11557 3.65467,-3.83058 8.16294,-3.83058c4.50827,0 8.16294,1.71501 8.16294,3.83058z" fill="#1b1464" stroke-width="0.2891"/><path d="M257.52934,167.19148c0,1.75804 -3.31585,3.1832 -7.40615,3.1832c-4.0903,0 -7.40615,-1.42517 -7.40615,-3.1832c0,-1.75804 3.31585,-3.18321 7.40615,-3.18321c4.09031,0 7.40615,1.42517 7.40615,3.18321z" fill="#ffffff" stroke-width="0.25074"/></g><path d="M233.94382,166.83183c0,0.48527 -0.38316,0.87866 -0.85581,0.87866c-0.47265,0 -0.85581,-0.39339 -0.85581,-0.87866c0,-0.48527 0.38316,-0.87866 0.85581,-0.87866c0.47265,0 0.85581,0.39339 0.85581,0.87866z" fill="#000000" stroke="#1b1464" stroke-width="0.09356"/><path d="M250.87253,167.04544c0,0.48528 -0.38316,0.87866 -0.85581,0.87866c-0.47265,0 -0.85581,-0.39339 -0.85581,-0.87866c0,-0.48527 0.38316,-0.87866 0.85581,-0.87866c0.47265,0 0.85581,0.39339 0.85581,0.87866z" fill="#000000" stroke="#1b1464" stroke-width="0.09356"/><g stroke="#1b1464"><path d="M248.65339,179.18113c0,2.97704 -3.65467,5.3904 -8.16294,5.3904c-4.50826,0 -8.16294,-2.41337 -8.16294,-5.3904c0,-2.97704 3.65467,-5.3904 8.16294,-5.3904c4.50826,0 8.16294,2.41336 8.16294,5.3904z" fill="#1b1464" stroke-width="0.34242"/><path d="M247.16682,179.25058c0,2.43509 -3.06305,4.40912 -6.84152,4.40912c-3.77846,0 -6.84151,-1.97403 -6.84151,-4.40912c0,-2.43509 3.06305,-4.40912 6.84151,-4.40912c3.77846,0 6.84152,1.97403 6.84152,4.40912z" fill="#cc8800" stroke-width="0.28348"/></g><path d="M273.49174,152.4009c0.00403,0 0.00745,0.05828 0.00745,0.13022" fill="none" stroke="#1b1464" stroke-width="0.09356"/></g><path d="M230.64336,162.61571c4.23421,-0.75261 6.85026,-0.12243 8.45687,0.84051c2.12968,1.27645 2.4856,3.1376 2.4856,3.1376v0" fill="none" stroke="#1b2155" stroke-width="2" stroke-linecap="round" stroke-linejoin="round"/><path d="M233.94476,180.27218v0c-0.29614,-0.00155 -0.51529,-0.2437 -0.52801,-0.52738c-0.01273,-0.28369 0.25174,-0.52894 0.52801,-0.52738c0.11951,0.00062 0.23839,-0.00682 0.35666,-0.02263l-0.14031,0.01891c0.2145,-0.03069 0.42341,-0.08774 0.62362,-0.17022l-0.12603,0.05302c0.19991,-0.08433 0.3874,-0.19316 0.55968,-0.32523l-0.10679,0.08248c0.28155,-0.21982 0.51622,-0.49018 0.78503,-0.72395c0.28434,-0.24741 0.60096,-0.45793 0.96849,-0.55931c0.40074,-0.11069 0.82632,-0.06852 1.18764,0.14138c0.3011,0.17487 0.55223,0.43871 0.80304,0.67682c0.23095,0.2192 0.46345,0.43747 0.7155,0.63248l-0.10679,-0.08247c0.22319,0.17115 0.46066,0.3212 0.72016,0.43126l-0.12603,-0.05301c0.18563,0.07689 0.37809,0.13332 0.57737,0.16153l-0.1403,-0.01891c0.15955,0.02078 0.32004,0.02294 0.47989,0.00186l-0.14031,0.01891c0.13441,-0.01984 0.26416,-0.05612 0.38988,-0.10852l-0.12603,0.05302c0.2831,-0.12216 0.51653,-0.30478 0.77386,-0.49359c0.25733,-0.18882 0.51932,-0.3488 0.82042,-0.46042c0.32283,-0.11968 0.68508,-0.1541 1.02747,-0.13859c0.65683,0.02976 1.28511,0.23005 1.93325,0.31842l-0.14031,-0.01891c0.28993,0.03844 0.58389,0.05364 0.87474,0.01519l-0.14031,0.01891c0.16483,-0.02325 0.32531,-0.06386 0.47897,-0.12774l-0.12603,0.05301c0.09002,-0.03875 0.17569,-0.08433 0.25765,-0.13797c0.1192,-0.07782 0.27254,-0.08371 0.40695,-0.05301c0.13441,0.0307 0.24336,0.13022 0.31538,0.24245c0.07202,0.11223 0.08785,0.28028 0.05308,0.40647c-0.03726,0.13425 -0.12789,0.23997 -0.24275,0.315c-0.21853,0.14261 -0.47338,0.24462 -0.72916,0.29639c-0.48208,0.09735 -0.95763,0.06294 -1.43938,-0.01488c-0.43272,-0.06976 -0.85581,-0.18603 -1.29039,-0.24493l0.14031,0.01891c-0.27037,-0.03535 -0.54322,-0.04931 -0.81452,-0.0155l0.1403,-0.01891c-0.16855,0.02294 -0.33246,0.06449 -0.49014,0.12866l0.12602,-0.05301c-0.36846,0.15564 -0.66802,0.42506 -0.99611,0.64675c-0.36815,0.24897 -0.7661,0.40553 -1.22645,0.42321c-0.46034,0.01767 -0.91634,-0.12092 -1.32391,-0.32461c-0.38584,-0.19285 -0.72823,-0.47312 -1.04671,-0.76085c-0.29241,-0.26385 -0.56278,-0.55931 -0.87474,-0.80053l0.10679,0.08248c-0.08785,-0.06635 -0.18004,-0.12433 -0.28155,-0.16773l0.12603,0.05301c-0.07326,-0.02945 -0.14807,-0.0493 -0.22629,-0.06046l0.1403,0.01891c-0.09064,-0.01086 -0.18097,-0.00899 -0.27161,0.00279l0.14031,-0.01891c-0.11361,0.01705 -0.22288,0.04929 -0.32904,0.0927l0.12603,-0.05303c-0.15427,0.06542 -0.29707,0.15224 -0.42961,0.25424l0.10678,-0.08248c-0.17508,0.13735 -0.33307,0.29392 -0.4917,0.44926c-0.30141,0.29547 -0.62393,0.57823 -1.01071,0.75619c-0.41937,0.19285 -0.8645,0.30322 -1.32857,0.30074z" fill="#1b1464" stroke="none" stroke-width="1" stroke-linecap="butt" stroke-linejoin="miter"/><g stroke="none" stroke-width="1" stroke-linecap="butt" stroke-linejoin="miter"><path d="M242.68476,192.6686c-1.96647,0.65233 -3.21371,-1.78399 -3.2789,-3.12492c-0.19121,-3.95491 1.61012,-5.48775 1.61012,-5.48775c0,0 0.87226,-0.1761 2.22505,0.26013c0.56868,0.18355 1.22365,0.47437 1.93419,0.93354c1.90593,1.23211 2.47523,3.20367 1.94598,4.40788c-0.13658,0.31129 -0.34705,0.57265 -0.62766,0.75495c-1.33292,0.86935 -2.85705,-0.62567 -2.92068,-0.68923c0.04533,0.08185 1.23265,2.24037 -0.88809,2.9454z" fill="#e800cd"/><g fill="#ffffff" opacity="0.62"><path d="M243.69486,190.68816c0.10486,0.45294 0.00613,0.86256 -0.22054,0.91491c-0.22666,0.05235 -0.4954,-0.2724 -0.60027,-0.72534c-0.10486,-0.45294 -0.00613,-0.86256 0.22053,-0.91491c0.22666,-0.05235 0.49541,0.27239 0.60027,0.72534z"/></g><g fill="#ffffff" opacity="0.62"><path d="M245.56353,190.73301c0.01863,-0.01116 0.03726,-0.02232 0.05525,-0.03472c0.28061,-0.18231 0.49107,-0.44367 0.62766,-0.75495c0.06208,-0.14199 0.10927,-0.29485 0.14062,-0.45576c0.06612,-0.33732 -0.06705,-0.67682 -0.34269,-0.8892c-0.24523,-0.18882 -0.51436,-0.54072 -0.72451,-0.97818c-0.19928,-0.4136 -0.30451,-0.81603 -0.30886,-1.11492c-0.00404,-0.28121 -0.12602,-0.54505 -0.3548,-0.7196c-0.11299,-0.0862 -0.23156,-0.16991 -0.35604,-0.25052c-0.71054,-0.45918 -1.36551,-0.75031 -1.93418,-0.93354c-0.73164,-0.23625 -1.32236,-0.29299 -1.71069,-0.29454c0.1161,-0.13362 0.18997,-0.19595 0.18997,-0.19595c0,0 0.87226,-0.17611 2.22504,0.26013c0.56868,0.18355 1.22365,0.47437 1.93419,0.93354c1.90593,1.23211 2.47524,3.20367 1.94597,4.40788c-0.13658,0.31128 -0.34705,0.57265 -0.62766,0.75495c-0.25019,0.16307 -0.5069,0.24307 -0.75989,0.26508z"/></g><g fill="#02025c" opacity="0.2"><path d="M242.68476,192.6686c-1.96647,0.65233 -3.21371,-1.78399 -3.2789,-3.12492c-0.19121,-3.95491 1.61012,-5.48775 1.61012,-5.48775c0,0 0.87226,-0.1761 2.22505,0.26013c-0.34239,0.89013 0.0745,3.3838 1.40027,4.94084c0.75773,0.88982 1.85224,1.15554 1.85224,1.15554c-0.41658,0.54938 -1.95933,0.37949 -2.92068,-0.68923c0.02204,0.03907 0.30328,0.55001 0.36071,1.15088c-0.01459,-0.11348 -0.04098,-0.2285 -0.07947,-0.34353c-0.24678,-0.73449 -0.90051,-1.18127 -1.46081,-0.99771c-0.56029,0.18355 -0.81452,0.92703 -0.56774,1.66151c0.24709,0.73512 0.90082,1.18219 1.46111,0.99865c0.32903,-0.10759 0.55192,-0.40802 0.63076,-0.78565c-0.0894,0.50165 -0.41471,0.98966 -1.23265,1.26125z"/></g><path d="M239.10911,188.76114c0.05836,-3.4607 1.64767,-4.85496 1.72031,-4.91666c0.03694,-0.03131 0.08133,-0.05271 0.12882,-0.06232c0.07668,-0.0155 1.90315,-0.36152 4.37311,1.23427c1.66475,1.07554 2.26043,2.60529 2.2626,3.67834c0.00155,0.8461 -0.34177,1.5589 -0.94304,1.9508c-0.8974,0.58536 -1.83951,0.2657 -2.48393,-0.1172c0.08164,0.38538 0.10275,0.8399 -0.06456,1.26869c-0.20705,0.53049 -0.65373,0.91276 -1.32702,1.13631c-0.69098,0.22942 -1.37544,0.13641 -1.97981,-0.26881c-0.98525,-0.6604 -1.62439,-2.09837 -1.67343,-3.10725c-0.01335,-0.27656 -0.01739,-0.54195 -0.01304,-0.79588zM241.14821,184.31916c-0.2893,0.29547 -1.62098,1.84909 -1.4577,5.21119c0.04129,0.85293 0.59817,2.11728 1.42573,2.67194c0.45755,0.30694 0.95452,0.37453 1.47725,0.20091c0.50442,-0.16742 0.83315,-0.43809 0.97718,-0.80487c0.29893,-0.76177 -0.24275,-1.73128 -0.24802,-1.7409c-0.06953,-0.12246 -0.03601,-0.27686 0.07854,-0.36057c0.11454,-0.08371 0.2744,-0.07131 0.37374,0.02946c0.01366,0.01395 1.41425,1.4017 2.56153,0.65326c0.43924,-0.28648 0.68974,-0.8275 0.68881,-1.48387c-0.00218,-0.92764 -0.53019,-2.25865 -2.0062,-3.21235c-1.98571,-1.28296 -3.51822,-1.2042 -3.87055,-1.16421z" fill="#02025c"/></g><path d="M228.98541,160.34574c4.74745,-0.8684 7.6806,-0.14126 9.48194,0.96981c2.38782,1.47282 2.78689,3.62031 2.78689,3.62031v0" fill="none" stroke="#1b2155" stroke-width="2" stroke-linecap="round" stroke-linejoin="round"/><path d="M241.91742,164.93586v0c0,0 0.5177,-2.14748 3.61542,-3.62031c2.33688,-1.11108 6.14205,-1.83821 12.30089,-0.96981" fill="none" stroke="#1b2155" stroke-width="2" stroke-linecap="round" stroke-linejoin="round"/><path d="M241.58583,166.59381v0c0,0 0.39906,-1.86115 2.78689,-3.1376c1.80135,-0.96294 4.73449,-1.59312 9.48194,-0.84051" fill="none" stroke="#1b2155" stroke-width="2" stroke-linecap="round" stroke-linejoin="round"/></g></g></g></svg>