<svg version="1.1" xmlns="http://www.w3.org/2000/svg" xmlns:xlink="http://www.w3.org/1999/xlink" width="108.82579" height="26.28474" viewBox="0,0,108.82579,26.28474"><g transform="translate(-185.58711,-166.85763)"><g data-paper-data="{&quot;isPaintingLayer&quot;:true}" fill-rule="nonzero" stroke="none" stroke-width="1" stroke-linecap="butt" stroke-linejoin="miter" stroke-miterlimit="10" stroke-dasharray="" stroke-dashoffset="0" style="mix-blend-mode: normal"><g><path d="M279.28741,175.39336h0.02213l-0.82432,11.18603l-1.28905,-0.13879l-14.15732,-1.35418l0.80219,-10.89718c0,-0.01876 0.00554,-0.04502 0.01106,-0.07127v-0.06752l0.02213,-0.32636h0.01659c0.50344,-3.3498 4.0497,-5.65679 8.14364,-5.21415c4.09948,0.44264 7.25293,3.47735 7.25293,6.87966z" fill="#c15e28"/><path d="M279.28741,175.39336h0.02213l-0.82432,11.18603l-1.28905,-0.13879l-14.15732,-1.35418l0.80219,-10.89718c0,-0.01876 0.00554,-0.04502 0.01106,-0.07127v-0.06752l0.02213,-0.32636h0.01659c0.50344,-3.3498 4.0497,-5.65679 8.14364,-5.21415c4.09948,0.44264 7.25293,3.47735 7.25293,6.87966z" fill="#c15e28"/><path d="M279.28187,175.38961h0.02213l-0.82432,11.18603l-1.28905,-0.13879l-6.41754,-0.61145l1.27797,-17.31546c4.09948,0.45014 7.23634,3.4811 7.23634,6.87966z" fill="#a34f24"/><path d="M264.48833,180.69378c-0.61409,-4.66647 0.58643,-8.69524 0.58643,-8.69524c0.87965,3.07972 -0.58643,8.69524 -0.58643,8.69524z" fill="#cd4a42" opacity="0.5" style="mix-blend-mode: screen"/><path d="M266.55743,175.93353c-0.73028,-3.20351 0.38174,-5.90812 0.38174,-5.90812c0.94603,2.12692 -0.38174,5.90812 -0.38174,5.90812z" fill="#cd4a42" opacity="0.5" style="mix-blend-mode: screen"/><path d="M268.03457,178.6494c-0.66942,-3.87872 0.47578,-7.19102 0.47578,-7.19102c0.91837,2.56581 -0.47578,7.19102 -0.47578,7.19102z" fill="#cd4a42" opacity="0.5" style="mix-blend-mode: screen"/><path d="M270.1922,177.48278c-0.57537,-2.98969 0.3596,-5.53299 0.3596,-5.53299c0.769,1.98063 -0.3596,5.53299 -0.3596,5.53299z" fill="#cd4a42" opacity="0.5" style="mix-blend-mode: screen"/><path d="M272.6541,179.26083c-0.61962,-2.07441 0.23789,-3.7962 0.23789,-3.7962c0.77453,1.38794 -0.23789,3.7962 -0.23789,3.7962z" fill="#914720"/><path d="M275.07174,175.37086c-0.61409,-2.07441 0.2379,-3.7962 0.2379,-3.7962c0.78006,1.38794 -0.2379,3.7962 -0.2379,3.7962z" fill="#914720"/><path d="M276.17822,180.47997c-0.61409,-1.31667 0.13278,-2.37074 0.13278,-2.37074c0.74687,0.89278 -0.13278,2.37074 -0.13278,2.37074z" fill="#914720"/><path d="M277.87665,182.13424c-0.61962,-2.07441 0.23789,-3.7962 0.23789,-3.7962c0.78006,1.38794 -0.23789,3.7962 -0.23789,3.7962z" fill="#914720"/><path d="M277.56131,177.28771c-0.47579,-2.59957 0.32088,-4.81652 0.32088,-4.81652c0.64176,1.72179 -0.32088,4.81652 -0.32088,4.81652z" fill="#914720"/><path d="M272.6541,173.79161c-0.47579,-2.59957 0.32088,-4.82027 0.32088,-4.82027c0.64176,1.72179 -0.32088,4.82027 -0.32088,4.82027z" fill="#914720"/><path d="M278.49628,186.57939c-0.26002,3.55987 -3.93904,6.07317 -8.19896,5.61177c-4.26545,-0.4614 -7.50742,-3.72117 -7.24187,-7.28105c0.26002,-3.55987 3.92798,-6.07316 8.19343,-5.61177c4.25992,0.4614 7.51295,3.72492 7.2474,7.2848z" fill="#eac19b"/><path d="M278.31371,186.70318c-0.25449,3.4811 -3.845,5.93812 -8.0164,5.48798c-4.1714,-0.45014 -7.34145,-3.63865 -7.08696,-7.1235c0.25449,-3.4886 3.83947,-5.94187 8.0164,-5.49173c4.17141,0.45014 7.34145,3.63864 7.08696,7.1235z" fill="#a25c2a"/><path d="M277.41747,186.64692c-0.22683,3.06847 -3.39134,5.23291 -7.07036,4.83528c-3.67349,-0.39762 -6.47287,-3.21102 -6.24604,-6.27948c0.22683,-3.07222 3.39134,-5.23666 7.06483,-4.83903c3.67349,0.39762 6.47287,3.21102 6.24604,6.28323z" fill="#eac19b"/><g fill="#a25c2a" style="mix-blend-mode: screen"><path d="M270.40796,190.69444c-3.0262,-0.32636 -5.34426,-2.65209 -5.1617,-5.18414c0.1881,-2.53205 2.81044,-4.32511 5.83664,-3.99501c3.03174,0.32635 5.34426,2.65584 5.15616,5.18788c-0.1881,2.53205 -2.79938,4.32136 -5.83111,3.99501zM271.01652,182.42308c-2.42871,-0.26258 -4.531,1.17412 -4.68038,3.20351c-0.14938,2.02939 1.7095,3.89748 4.13821,4.16006c2.43424,0.26258 4.53101,-1.17412 4.68039,-3.20351c0.14938,-2.02939 -1.70397,-3.89748 -4.13821,-4.16007z" style="mix-blend-mode: normal"/><path d="M270.50754,189.34777c-2.13549,-0.23258 -3.77307,-1.8756 -3.6403,-3.65741c0.13278,-1.78556 1.98612,-3.05346 4.11608,-2.82089c2.14102,0.23258 3.77307,1.87559 3.6403,3.66115c-0.13278,1.78556 -1.98059,3.04971 -4.11608,2.81714zM270.91694,183.78101c-1.54353,-0.16505 -2.8713,0.74274 -2.96535,2.02564c-0.09405,1.2829 1.07881,2.46453 2.62235,2.63333c1.54353,0.16505 2.87129,-0.74273 2.96534,-2.02564c0.09405,-1.2829 -1.07881,-2.46453 -2.62234,-2.63334z" style="mix-blend-mode: normal"/><path d="M270.61266,187.8848c-1.17286,-0.12754 -2.06357,-1.02782 -1.99165,-2.00688c0.07192,-0.97906 1.07881,-1.67303 2.25167,-1.54549c1.17286,0.12754 2.06911,1.02782 1.99718,2.00688c-0.07192,0.97906 -1.08435,1.67303 -2.25721,1.54924zM270.80629,185.24022c-0.5643,-0.06002 -1.06222,0.27759 -1.10094,0.75774c-0.0332,0.4764 0.40386,0.91529 0.9737,0.97531c0.56984,0.06377 1.06222,-0.27383 1.10094,-0.75399c0.0332,-0.48015 -0.39833,-0.91904 -0.96816,-0.97906z" style="mix-blend-mode: normal"/></g></g><g><path d="M294.39077,173.79536h0.02213l-0.82432,11.18602l-1.29457,-0.13879l-14.15732,-1.35418l0.80219,-10.89719c0,-0.01876 0,-0.04502 0,-0.06752c0.00553,-0.02626 0.01106,-0.04502 0.01106,-0.07127l0.02213,-0.32636h0.02213c0.49238,-3.34605 4.03862,-5.65679 8.13811,-5.21415c4.10501,0.44264 7.25846,3.4811 7.25846,6.87966z" fill="#c15e28"/><path d="M294.39077,173.79536h0.02213l-0.82432,11.18602l-1.29457,-0.13879l-14.15732,-1.35418l0.80219,-10.89719c0,-0.01876 0,-0.04502 0,-0.06752c0.00553,-0.02626 0.01106,-0.04502 0.01106,-0.07127l0.02213,-0.32636h0.02213c0.49238,-3.34605 4.03862,-5.65679 8.13811,-5.21415c4.10501,0.44264 7.25846,3.4811 7.25846,6.87966z" fill="#c15e28"/><path d="M294.38523,173.79161h0.02213l-0.82432,11.18603l-1.29457,-0.13879l-6.41202,-0.61145l1.27797,-17.31546c4.09948,0.45014 7.23634,3.48484 7.23634,6.87966z" fill="#a34f24"/><path d="M279.59169,179.09953c-0.61962,-4.67022 0.58643,-8.699 0.58643,-8.699c0.87411,3.08347 -0.58643,8.699 -0.58643,8.699z" fill="#cd4a42" opacity="0.5" style="mix-blend-mode: screen"/><path d="M281.65526,174.33553c-0.73028,-3.20351 0.38174,-5.90812 0.38174,-5.90812c0.94603,2.12692 -0.38174,5.90812 -0.38174,5.90812z" fill="#cd4a42" opacity="0.5" style="mix-blend-mode: screen"/><path d="M283.13793,177.05138c-0.67495,-3.87497 0.47578,-7.19102 0.47578,-7.19102c0.91837,2.56581 -0.47578,7.19102 -0.47578,7.19102z" fill="#cd4a42" opacity="0.5" style="mix-blend-mode: screen"/><path d="M285.29002,175.88477c-0.56984,-2.98594 0.37067,-5.52925 0.37067,-5.52925c0.7524,1.97687 -0.37067,5.52925 -0.37067,5.52925z" fill="#cd4a42" opacity="0.5" style="mix-blend-mode: screen"/><path d="M287.75192,177.66283c-0.61962,-2.07441 0.24343,-3.7962 0.24343,-3.7962c0.77453,1.38794 -0.24343,3.7962 -0.24343,3.7962z" fill="#914720"/><path d="M290.1751,173.77285c-0.61962,-2.07441 0.23789,-3.7962 0.23789,-3.7962c0.78006,1.38419 -0.23789,3.7962 -0.23789,3.7962z" fill="#914720"/><path d="M291.27604,178.88196c-0.61409,-1.31667 0.13278,-2.367 0.13278,-2.367c0.74134,0.89278 -0.13278,2.367 -0.13278,2.367z" fill="#914720"/><path d="M292.97448,180.53999c-0.61962,-2.07816 0.23789,-3.79995 0.23789,-3.79995c0.7856,1.38794 -0.23789,3.79995 -0.23789,3.79995z" fill="#914720"/><path d="M292.65914,175.69721c-0.47579,-2.60332 0.32641,-4.82027 0.32641,-4.82027c0.63623,1.72179 -0.32641,4.82027 -0.32641,4.82027z" fill="#914720"/><path d="M287.7464,172.1936c-0.47579,-2.60332 0.32641,-4.82027 0.32641,-4.82027c0.63623,1.72179 -0.32641,4.82027 -0.32641,4.82027z" fill="#914720"/><path d="M293.5941,184.98139c-0.26002,3.56363 -3.93351,6.07317 -8.19343,5.61177c-4.27099,-0.4614 -7.51295,-3.72117 -7.2474,-7.2848c0.26002,-3.56362 3.92798,-6.07317 8.19896,-5.61177c4.25992,0.4614 7.50742,3.72117 7.24186,7.28105z" fill="#eac19b"/><path d="M293.41707,185.10893c-0.25449,3.4811 -3.845,5.93812 -8.0164,5.48798c-4.17694,-0.45389 -7.34144,-3.6424 -7.08696,-7.1235c0.25449,-3.48485 3.83946,-5.94188 8.0164,-5.49173c4.17141,0.45014 7.34145,3.63865 7.08696,7.1235z" fill="#a25c2a"/><path d="M292.50976,185.04516c-0.22683,3.07222 -3.39134,5.23665 -7.0593,4.84278c-3.67903,-0.39763 -6.47287,-3.21102 -6.24604,-6.28323c0.22683,-3.06847 3.38581,-5.23665 7.07036,-4.83528c3.68456,0.40138 6.46734,3.20726 6.24051,6.27573z" fill="#eac19b"/><g fill="#a25c2a" style="mix-blend-mode: screen"><path d="M285.51132,189.10394c-3.03727,-0.3301 -5.34427,-2.65209 -5.1617,-5.18788c0.1881,-2.53205 2.79938,-4.32511 5.83665,-3.99501c3.0262,0.32636 5.34426,2.65584 5.1617,5.18788c-0.1881,2.53205 -2.81044,4.32511 -5.83664,3.99501zM286.11988,180.82883c-2.43424,-0.26258 -4.53101,1.17787 -4.68039,3.20351c-0.14938,2.02939 1.7095,3.89748 4.13821,4.16007c2.42871,0.26258 4.52548,-1.17787 4.67485,-3.20726c0.14938,-2.02564 -1.70397,-3.89748 -4.13268,-4.16006z" style="mix-blend-mode: normal"/><path d="M285.6109,187.75351c-2.14102,-0.23257 -3.77861,-1.87934 -3.64583,-3.6649c0.13278,-1.78556 1.98059,-3.04971 4.12162,-2.81714c2.14102,0.23257 3.76201,1.87184 3.62923,3.6574c-0.13278,1.78556 -1.97505,3.05346 -4.11055,2.82464zM286.02029,182.18301c-1.54353,-0.16505 -2.8713,0.74274 -2.96535,2.02564c-0.09405,1.2829 1.07881,2.46828 2.62234,2.63333c1.53246,0.16505 2.8713,-0.74648 2.96535,-2.02939c0.09405,-1.2829 -1.08988,-2.46453 -2.62235,-2.63333z" style="mix-blend-mode: normal"/><path d="M285.71602,186.2868c-1.17286,-0.12754 -2.06911,-1.02408 -1.99718,-2.00313c0.07192,-0.97906 1.08987,-1.67302 2.26274,-1.54549c1.17286,0.12754 2.06357,1.02407 1.99165,2.00688c-0.07192,0.97906 -1.07881,1.67302 -2.25167,1.54548zM285.90965,183.64972c-0.56984,-0.06002 -1.06222,0.27759 -1.10094,0.75399c-0.0332,0.48015 0.39833,0.91528 0.96817,0.97906c0.56984,0.06377 1.06222,-0.27383 1.10094,-0.75399c0.0332,-0.4764 -0.40386,-0.91528 -0.9737,-0.9753z" style="mix-blend-mode: normal"/></g></g><g><path d="M248.36148,176.2899h0.01659l-0.82432,11.18603l-1.30011,-0.13879l-14.14626,-1.35043l0.80219,-10.89718c0,-0.02251 0,-0.04502 0,-0.07127c0,-0.02626 0.01106,-0.04502 0.01106,-0.07127l0.02213,-0.32636h0.0166c0.50344,-3.34605 4.03862,-5.65678 8.14364,-5.21414c4.09948,0.44264 7.25847,3.4811 7.25847,6.87967z" fill="#c15e28"/><path d="M248.36148,176.2899h0.01659l-0.82432,11.18603l-1.30011,-0.13879l-14.14626,-1.35043l0.80219,-10.89718c0,-0.02251 0,-0.04502 0,-0.07127c0,-0.02626 0.01106,-0.04502 0.01106,-0.07127l0.02213,-0.32636h0.0166c0.50344,-3.34605 4.03862,-5.65678 8.14364,-5.21414c4.09948,0.44264 7.25847,3.4811 7.25847,6.87967z" fill="#c15e28"/><path d="M248.37808,176.28615l-0.82432,11.18602l-1.30011,-0.13879l-6.40648,-0.61144l1.27797,-17.31171c4.09948,0.45014 7.23634,3.4811 7.23634,6.87592z" fill="#a34f24"/><path d="M233.55687,181.59407c-0.61409,-4.67022 0.58643,-8.69524 0.58643,-8.69524c0.87965,3.07972 -0.58643,8.69524 -0.58643,8.69524z" fill="#cd4a42" opacity="0.5" style="mix-blend-mode: screen"/><path d="M235.62597,176.83007c-0.73028,-3.20351 0.38174,-5.90812 0.38174,-5.90812c0.94051,2.13067 -0.38174,5.90812 -0.38174,5.90812z" fill="#cd4a42" opacity="0.5" style="mix-blend-mode: screen"/><path d="M237.10312,179.54217c-0.66942,-3.87497 0.47578,-7.18727 0.47578,-7.18727c0.91837,2.56206 -0.47578,7.18727 -0.47578,7.18727z" fill="#cd4a42" opacity="0.5" style="mix-blend-mode: screen"/><path d="M239.26627,178.37555c-0.57537,-2.98219 0.3596,-5.52924 0.3596,-5.52924c0.76347,1.98063 -0.3596,5.52924 -0.3596,5.52924z" fill="#cd4a42" opacity="0.5" style="mix-blend-mode: screen"/><path d="M241.72265,180.16112c-0.61962,-2.07816 0.23789,-3.7962 0.23789,-3.7962c0.78006,1.38794 -0.23789,3.7962 -0.23789,3.7962z" fill="#914720"/><path d="M244.14582,176.26364c-0.61962,-2.07065 0.2379,-3.79245 0.2379,-3.79245c0.78006,1.38419 -0.2379,3.79245 -0.2379,3.79245z" fill="#914720"/><path d="M245.24676,181.3765c-0.61409,-1.32042 0.13278,-2.37074 0.13278,-2.37074c0.74687,0.89278 -0.13278,2.37074 -0.13278,2.37074z" fill="#914720"/><path d="M246.94519,183.03453c-0.61962,-2.07816 0.23789,-3.79995 0.23789,-3.79995c0.78007,1.38794 -0.23789,3.79995 -0.23789,3.79995z" fill="#914720"/><path d="M246.62985,178.18799c-0.47579,-2.60332 0.32088,-4.81652 0.32088,-4.81652c0.64176,1.72179 -0.32088,4.81652 -0.32088,4.81652z" fill="#914720"/><path d="M241.72265,174.68814c-0.47578,-2.59957 0.32088,-4.81652 0.32088,-4.81652c0.64176,1.72179 -0.32088,4.81652 -0.32088,4.81652z" fill="#914720"/><path d="M247.56482,187.47592c-0.26002,3.56363 -3.93904,6.07317 -8.2045,5.61177c-4.25992,-0.4614 -7.50189,-3.72118 -7.24186,-7.28105c0.26002,-3.55988 3.92798,-6.07316 8.1879,-5.61177c4.26546,0.4614 7.51295,3.72492 7.25293,7.2848z" fill="#eac19b"/><path d="M247.38225,187.59971c-0.25449,3.48485 -3.845,5.93812 -8.0164,5.48798c-4.1714,-0.45014 -7.33592,-3.63865 -7.08143,-7.11975c0.25449,-3.48485 3.83946,-5.94188 8.01086,-5.48798c4.17141,0.45014 7.34698,3.6424 7.08696,7.1235z" fill="#a25c2a"/><path d="M246.48601,187.53969c-0.22683,3.06847 -3.39134,5.23291 -7.07037,4.83528c-3.67349,-0.39763 -6.47287,-3.20726 -6.24604,-6.27948c0.22683,-3.07222 3.39135,-5.23665 7.06483,-4.83903c3.67349,0.39763 6.47287,3.21102 6.24603,6.28323z" fill="#eac19b"/><g fill="#a25c2a" style="mix-blend-mode: screen"><path d="M239.47097,191.59473c-3.03174,-0.32636 -5.34426,-2.65209 -5.15616,-5.18789c0.1881,-2.52829 2.79938,-4.32137 5.83111,-3.99126c3.03727,0.33011 5.34426,2.65584 5.1617,5.18414c-0.1881,2.53205 -2.79938,4.32511 -5.83664,3.99501zM240.07953,183.32337c-2.42317,-0.26258 -4.53101,1.17412 -4.68038,3.19976c-0.14938,2.03314 1.7095,3.89747 4.13821,4.16006c2.43977,0.26258 4.53101,-1.17412 4.68038,-3.20726c0.14938,-2.02564 -1.70397,-3.89373 -4.13821,-4.15631z" style="mix-blend-mode: normal"/><path d="M239.57055,190.2443c-2.14103,-0.23257 -3.76754,-1.87184 -3.63477,-3.66115c0.13278,-1.78181 1.97505,-3.04971 4.11055,-2.81714c2.14103,0.23258 3.77861,1.8756 3.64583,3.65741c-0.13278,1.78931 -1.98058,3.05347 -4.12161,2.82089zM239.97995,184.6738c-1.538,-0.16505 -2.86577,0.74273 -2.95981,2.02564c-0.09405,1.28666 1.07881,2.46828 2.61681,2.63334c1.538,0.16505 2.8713,-0.73898 2.97088,-2.02939c0.09405,-1.2829 -1.08988,-2.46453 -2.62787,-2.63333z" style="mix-blend-mode: normal"/><path d="M239.68673,188.78134c-1.17286,-0.12754 -2.06911,-1.02782 -1.99719,-2.00688c0.07192,-0.97531 1.08988,-1.67303 2.26274,-1.54549c1.17286,0.12754 2.06911,1.03157 1.99719,2.00688c-0.07192,0.97531 -1.08435,1.67303 -2.25721,1.54924zM239.88037,186.14051c-0.5643,-0.06002 -1.06222,0.27759 -1.10094,0.75399c-0.0332,0.48015 0.40386,0.91904 0.96817,0.97906c0.56984,0.06002 1.06775,-0.27384 1.10094,-0.75399c0.0332,-0.4764 -0.40386,-0.91529 -0.9737,-0.97531z" style="mix-blend-mode: normal"/></g></g><g><path d="M263.76912,176.10984h0.02213l-0.82432,11.18602l-1.29457,-0.13879l-14.15733,-1.35417l0.80219,-10.89719c0,-0.02251 0.00554,-0.04501 0.01106,-0.06752v-0.07127l0.02213,-0.32636h0.02213c0.49792,-3.3498 4.04416,-5.65679 8.14917,-5.21415c4.09395,0.44264 7.2474,3.47735 7.2474,6.87967z" fill="#c15e28"/><path d="M263.76912,176.10984h0.02213l-0.82432,11.18602l-1.29457,-0.13879l-14.15733,-1.35417l0.80219,-10.89719c0,-0.02251 0.00554,-0.04501 0.01106,-0.06752v-0.07127l0.02213,-0.32636h0.02213c0.49792,-3.3498 4.04416,-5.65679 8.14917,-5.21415c4.09395,0.44264 7.2474,3.47735 7.2474,6.87967z" fill="#c15e28"/><path d="M263.76359,176.10984h0.02213l-0.82432,11.18602l-1.29457,-0.13879l-6.41202,-0.61144l1.27798,-17.31921c4.09395,0.45389 7.23634,3.48485 7.23634,6.87967z" fill="#a34f24"/><path d="M248.96451,181.41401c-0.61962,-4.66647 0.58643,-8.69524 0.58643,-8.69524c0.87411,3.07597 -0.58643,8.69524 -0.58643,8.69524z" fill="#cd4a42" opacity="0.5" style="mix-blend-mode: screen"/><path d="M251.02808,176.65001c-0.73028,-3.20351 0.38173,-5.90436 0.38173,-5.90436c0.9405,2.12692 -0.38173,5.90436 -0.38173,5.90436z" fill="#cd4a42" opacity="0.5" style="mix-blend-mode: screen"/><path d="M252.51075,179.36587c-0.67495,-3.87873 0.47578,-7.19102 0.47578,-7.19102c0.91284,2.56206 -0.47578,7.19102 -0.47578,7.19102z" fill="#cd4a42" opacity="0.5" style="mix-blend-mode: screen"/><path d="M254.67391,178.1955c-0.56984,-2.98594 0.36514,-5.52925 0.36514,-5.52925c0.76347,1.97687 -0.36514,5.52925 -0.36514,5.52925z" fill="#cd4a42" opacity="0.5" style="mix-blend-mode: screen"/><path d="M257.13028,179.97731c-0.61962,-2.07065 0.23789,-3.79245 0.23789,-3.79245c0.78006,1.38419 -0.23789,3.79245 -0.23789,3.79245z" fill="#914720"/><path d="M259.54793,176.08733c-0.61409,-2.07441 0.23789,-3.7962 0.23789,-3.7962c0.78006,1.38794 -0.23789,3.7962 -0.23789,3.7962z" fill="#914720"/><path d="M260.6544,181.19644c-0.61409,-1.31667 0.13278,-2.367 0.13278,-2.367c0.74134,0.89278 -0.13278,2.367 -0.13278,2.367z" fill="#914720"/><path d="M262.3473,182.85072c-0.61962,-2.07441 0.2379,-3.7962 0.2379,-3.7962c0.7856,1.38794 -0.2379,3.7962 -0.2379,3.7962z" fill="#914720"/><path d="M262.03196,178.00794c-0.47579,-2.59957 0.32641,-4.81652 0.32641,-4.81652c0.63623,1.71804 -0.32641,4.81652 -0.32641,4.81652z" fill="#914720"/><path d="M257.12475,174.50809c-0.47579,-2.60332 0.32641,-4.82027 0.32641,-4.82027c0.63623,1.72179 -0.32641,4.82027 -0.32641,4.82027z" fill="#914720"/><path d="M262.96693,187.29587c-0.26002,3.56363 -3.93351,6.07317 -8.19343,5.61178c-4.27099,-0.4614 -7.51295,-3.72118 -7.2474,-7.2848c0.26002,-3.55987 3.92798,-6.07316 8.19896,-5.61177c4.25992,0.4614 7.50742,3.72117 7.24186,7.28479z" fill="#eac19b"/><path d="M262.78989,187.41966c-0.25449,3.48485 -3.85052,5.93812 -8.0164,5.48799c-4.17694,-0.4539 -7.34145,-3.63865 -7.08696,-7.1235c0.25449,-3.48485 3.83946,-5.94188 8.0164,-5.48798c4.16587,0.45014 7.34145,3.63864 7.08696,7.12349z" fill="#a25c2a"/><path d="M261.89365,187.35964c-0.22683,3.07222 -3.4024,5.23666 -7.07036,4.83903c-3.67903,-0.39763 -6.47287,-3.21102 -6.24604,-6.28323c0.22683,-3.07222 3.38581,-5.23664 7.06483,-4.83527c3.66796,0.39763 6.47287,3.20726 6.25158,6.27948z" fill="#eac19b"/><g fill="#a25c2a" style="mix-blend-mode: screen"><path d="M254.88414,191.41467c-3.03174,-0.3301 -5.34426,-2.65584 -5.1617,-5.18414c0.1881,-2.52829 2.79938,-4.32511 5.83664,-3.99501c3.0262,0.32635 5.34427,2.65584 5.1617,5.18788c-0.1881,2.5283 -2.81045,4.32136 -5.83665,3.99501zM255.4927,183.14331c-2.43424,-0.26258 -4.52548,1.17037 -4.68038,3.20351c-0.14938,2.02939 1.70397,3.89373 4.13821,4.15631c2.42871,0.26258 4.52548,-1.17037 4.67485,-3.20351c0.14938,-2.03314 -1.70397,-3.89373 -4.13268,-4.15631z" style="mix-blend-mode: normal"/><path d="M254.98372,190.06424c-2.14102,-0.23258 -3.77861,-1.87184 -3.64583,-3.66116c0.13278,-1.78931 1.98059,-3.04971 4.12161,-2.81714c2.13549,0.23258 3.77307,1.87185 3.6403,3.65741c-0.13278,1.78556 -1.98058,3.04971 -4.11608,2.81714zM255.39312,184.49373c-1.54353,-0.16505 -2.8713,0.74649 -2.96535,2.02939c-0.09405,1.2829 1.07881,2.46452 2.62235,2.63333c1.53246,0.16505 2.8713,-0.74274 2.96535,-2.02564c0.09405,-1.2829 -1.08987,-2.46828 -2.62234,-2.63333z" style="mix-blend-mode: normal"/><path d="M255.09437,188.60128c-1.17286,-0.12754 -2.0691,-1.03157 -1.99718,-2.00688c0.07192,-0.97906 1.08987,-1.67302 2.26274,-1.54549c1.17286,0.12754 2.06357,1.02782 1.99165,2.00688c-0.07192,0.97531 -1.07881,1.67302 -2.25167,1.54548zM255.288,185.96045c-0.56984,-0.06002 -1.06775,0.27758 -1.10094,0.75398c-0.0332,0.48015 0.40386,0.91529 0.9737,0.97531c0.56984,0.06002 1.06222,-0.27384 1.10094,-0.75399c0.03873,-0.48015 -0.40386,-0.91528 -0.9737,-0.97906z" style="mix-blend-mode: normal"/></g></g><g><path d="M217.31385,175.14954h0.02766l-0.82432,11.18603l-1.30011,-0.1388l-14.15732,-1.35418l0.80219,-10.89719c0,-0.01876 0.00553,-0.04501 0.01106,-0.06752v-0.07127l0.02213,-0.32636h0.02766c0.49238,-3.34605 4.03863,-5.65678 8.13811,-5.21414c4.10501,0.44264 7.25293,3.4811 7.25293,6.87966z" fill="#c15e28"/><path d="M217.31385,175.14954h0.02766l-0.82432,11.18603l-1.30011,-0.1388l-14.15732,-1.35418l0.80219,-10.89719c0,-0.01876 0.00553,-0.04501 0.01106,-0.06752v-0.07127l0.02213,-0.32636h0.02766c0.49238,-3.34605 4.03863,-5.65678 8.13811,-5.21414c4.10501,0.44264 7.25293,3.4811 7.25293,6.87966z" fill="#c15e28"/><path d="M217.34151,175.14579l-0.82432,11.18603l-1.30011,-0.13879l-6.41754,-0.61145l1.27797,-17.31546c4.09395,0.45014 7.23634,3.4811 7.23634,6.87966z" fill="#a34f24"/><path d="M202.5037,180.44996c-0.60856,-4.66648 0.59749,-8.69524 0.59749,-8.69524c0.86858,3.07972 -0.59749,8.69524 -0.59749,8.69524z" fill="#cd4a42" opacity="0.5" style="mix-blend-mode: screen"/><path d="M204.57834,175.68596c-0.72474,-3.20726 0.38173,-5.90812 0.38173,-5.90812c0.94603,2.12692 -0.38173,5.90812 -0.38173,5.90812z" fill="#cd4a42" opacity="0.5" style="mix-blend-mode: screen"/><path d="M206.06101,178.40556c-0.68048,-3.87498 0.47578,-7.19102 0.47578,-7.19102c0.90731,2.56206 -0.47578,7.19102 -0.47578,7.19102z" fill="#cd4a42" opacity="0.5" style="mix-blend-mode: screen"/><path d="M208.21863,177.23145c-0.57537,-2.98594 0.36514,-5.52549 0.36514,-5.52549c0.75793,1.97687 -0.36514,5.52549 -0.36514,5.52549z" fill="#cd4a42" opacity="0.5" style="mix-blend-mode: screen"/><path d="M210.675,179.01701c-0.61409,-2.07441 0.23789,-3.7962 0.23789,-3.7962c0.7856,1.38794 -0.23789,3.7962 -0.23789,3.7962z" fill="#914720"/><path d="M213.09818,175.12328c-0.61962,-2.07065 0.23236,-3.7962 0.23236,-3.7962c0.78006,1.38794 -0.23236,3.7962 -0.23236,3.7962z" fill="#914720"/><path d="M214.19912,180.23239c-0.61409,-1.31667 0.13278,-2.36699 0.13278,-2.36699c0.74134,0.89278 -0.13278,2.36699 -0.13278,2.36699z" fill="#914720"/><path d="M215.89756,181.89041c-0.61962,-2.07441 0.23789,-3.79995 0.23789,-3.79995c0.78006,1.38794 -0.23789,3.79995 -0.23789,3.79995z" fill="#914720"/><path d="M215.58775,177.04764c-0.48132,-2.60332 0.31534,-4.82027 0.31534,-4.82027c0.64728,1.72179 -0.31534,4.82027 -0.31534,4.82027z" fill="#914720"/><path d="M210.66948,173.54778c-0.47578,-2.60332 0.32087,-4.81652 0.32087,-4.81652c0.64176,1.71804 -0.32087,4.81652 -0.32087,4.81652z" fill="#914720"/><path d="M216.51718,186.33557c-0.26002,3.55987 -3.92798,6.07317 -8.19897,5.61177c-4.26545,-0.4614 -7.50742,-3.72117 -7.24186,-7.2848c0.26002,-3.56362 3.92798,-6.07316 8.19343,-5.61177c4.27099,0.4614 7.51295,3.72118 7.2474,7.2848z" fill="#eac19b"/><path d="M216.33461,186.45936c-0.25449,3.4811 -3.845,5.93812 -8.0164,5.48798c-4.1714,-0.45014 -7.34145,-3.6424 -7.08696,-7.1235c0.25449,-3.48485 3.845,-5.94187 8.0164,-5.49173c4.17141,0.45014 7.34145,3.6424 7.08696,7.12725z" fill="#a25c2a"/><path d="M215.43837,186.39934c-0.22683,3.07222 -3.38581,5.23665 -7.07036,4.83903c-3.67349,-0.39762 -6.46733,-3.20726 -6.24051,-6.27948c0.22683,-3.07222 3.38581,-5.23665 7.0593,-4.83902c3.67903,0.39762 6.47287,3.20726 6.25158,6.27948z" fill="#eac19b"/><g fill="#a25c2a" style="mix-blend-mode: screen"><path d="M208.42886,190.45436c-3.0262,-0.32635 -5.34426,-2.65208 -5.1617,-5.18788c0.1881,-2.53205 2.81045,-4.32511 5.83664,-3.99501c3.03727,0.33011 5.34427,2.65584 5.1617,5.18789c-0.1881,2.53205 -2.79938,4.32511 -5.83665,3.99501zM209.03743,182.17926c-2.42871,-0.26258 -4.52548,1.17787 -4.67485,3.20351c-0.14938,2.02939 1.70397,3.89748 4.13268,4.16007c2.43424,0.26258 4.53101,-1.17412 4.68038,-3.20351c0.14938,-2.02939 -1.7095,-3.89747 -4.13821,-4.16006z" style="mix-blend-mode: normal"/><path d="M208.52845,189.10394c-2.13549,-0.23258 -3.76201,-1.87184 -3.62923,-3.65741c0.13278,-1.78556 1.97505,-3.04971 4.11055,-2.82089c2.14103,0.23257 3.77861,1.8756 3.64583,3.66115c-0.13278,1.78556 -1.98058,3.04971 -4.12161,2.81714zM208.93784,183.53719c-1.538,-0.16505 -2.8713,0.74274 -2.96535,2.02564c-0.09405,1.2829 1.08435,2.46828 2.62235,2.63333c1.54353,0.16505 2.8713,-0.74648 2.96535,-2.02939c0.09405,-1.2829 -1.07881,-2.46452 -2.62235,-2.63333z" style="mix-blend-mode: normal"/><path d="M208.63356,187.63723c-1.17286,-0.12754 -2.06357,-1.02407 -1.99165,-2.00314c0.07192,-0.97906 1.07881,-1.67302 2.25167,-1.54548c1.17286,0.12754 2.0691,1.02782 1.99718,2.00688c-0.07192,0.97906 -1.08987,1.66928 -2.26273,1.54174zM208.8272,185.00014c-0.5643,-0.06002 -1.06221,0.27759 -1.10094,0.75399c-0.0332,0.48015 0.40386,0.91904 0.96816,0.97906c0.56984,0.06377 1.06222,-0.27759 1.10094,-0.75773c0.0332,-0.4764 -0.39833,-0.91529 -0.9737,-0.97531z" style="mix-blend-mode: normal"/></g></g><g><path d="M201.84535,173.86663h0.02766l-0.82432,11.18602l-1.30011,-0.13879l-14.15732,-1.35417l0.80219,-10.89719c0,-0.02251 0.00554,-0.04501 0.01106,-0.07127v-0.06752l0.02213,-0.32636h0.02766c0.49238,-3.3498 4.03862,-5.65679 8.14364,-5.21415c4.09948,0.44264 7.2474,3.47735 7.2474,6.87967z" fill="#c15e28"/><path d="M201.84535,173.86663h0.02766l-0.82432,11.18602l-1.30011,-0.13879l-14.15732,-1.35417l0.80219,-10.89719c0,-0.02251 0.00554,-0.04501 0.01106,-0.07127v-0.06752l0.02213,-0.32636h0.02766c0.49238,-3.3498 4.03862,-5.65679 8.14364,-5.21415c4.09948,0.44264 7.2474,3.47735 7.2474,6.87967z" fill="#c15e28"/><path d="M201.83982,173.86288h0.02766l-0.82432,11.18603l-1.3001,-0.1388l-6.41202,-0.61144l1.27797,-17.31546c4.09948,0.45014 7.23634,3.48485 7.23634,6.87967z" fill="#a34f24"/><path d="M187.03521,179.16705c-0.61409,-4.67022 0.58643,-8.69524 0.58643,-8.69524c0.87412,3.07972 -0.58643,8.69524 -0.58643,8.69524z" fill="#cd4a42" opacity="0.5" style="mix-blend-mode: screen"/><path d="M189.10431,174.3993c-0.71921,-3.19976 0.38173,-5.90436 0.38173,-5.90436c0.94603,2.12692 -0.38173,5.90436 -0.38173,5.90436z" fill="#cd4a42" opacity="0.5" style="mix-blend-mode: screen"/><path d="M190.59252,177.12266c-0.68048,-3.87872 0.47578,-7.19102 0.47578,-7.19102c0.90731,2.56581 -0.47578,7.19102 -0.47578,7.19102z" fill="#cd4a42" opacity="0.5" style="mix-blend-mode: screen"/><path d="M192.73907,175.95229c-0.56984,-2.98594 0.37067,-5.52925 0.37067,-5.52925c0.75793,1.97687 -0.37067,5.52925 -0.37067,5.52925z" fill="#cd4a42" opacity="0.5" style="mix-blend-mode: screen"/><path d="M195.20098,177.73411c-0.61409,-2.07065 0.23789,-3.7962 0.23789,-3.7962c0.78006,1.38419 -0.23789,3.7962 -0.23789,3.7962z" fill="#914720"/><path d="M197.62415,173.84413c-0.61409,-2.07441 0.23789,-3.7962 0.23789,-3.7962c0.78006,1.38419 -0.23789,3.7962 -0.23789,3.7962z" fill="#914720"/><path d="M198.7251,178.94949c-0.60856,-1.31667 0.13278,-2.367 0.13278,-2.367c0.74134,0.88903 -0.13278,2.367 -0.13278,2.367z" fill="#914720"/><path d="M200.42353,180.60751c-0.61962,-2.07441 0.23789,-3.7962 0.23789,-3.7962c0.78006,1.38794 -0.23789,3.7962 -0.23789,3.7962z" fill="#914720"/><path d="M200.11372,175.76473c-0.48132,-2.60332 0.31534,-4.82027 0.31534,-4.82027c0.64728,1.72554 -0.31534,4.82027 -0.31534,4.82027z" fill="#914720"/><path d="M195.20098,172.26488c-0.47578,-2.60332 0.32641,-4.82027 0.32641,-4.82027c0.64176,1.72554 -0.32641,4.82027 -0.32641,4.82027z" fill="#914720"/><path d="M201.04316,185.05266c-0.26002,3.55988 -3.92798,6.07317 -8.19343,5.61178c-4.27099,-0.4614 -7.51295,-3.72493 -7.2474,-7.2848c0.26002,-3.56362 3.92798,-6.07316 8.19897,-5.61177c4.26545,0.4614 7.50742,3.72117 7.24186,7.28105z" fill="#eac19b"/><path d="M200.86612,185.17645c-0.25449,3.4811 -3.85053,5.93812 -8.0164,5.48799c-4.1714,-0.45014 -7.34145,-3.6424 -7.08696,-7.11975c0.25449,-3.4886 3.845,-5.94188 8.0164,-5.49173c4.16587,0.45014 7.34145,3.63864 7.08696,7.12724z" fill="#a25c2a"/><path d="M199.96987,185.11643c-0.22683,3.07222 -3.39133,5.23665 -7.07036,4.83903c-3.67903,-0.39763 -6.4784,-3.21102 -6.25158,-6.28323c0.22683,-3.07222 3.39133,-5.23665 7.07036,-4.83903c3.67349,0.39762 6.47287,3.21102 6.24604,6.28323z" fill="#eac19b"/><g fill="#a25c2a" style="mix-blend-mode: screen"><path d="M192.96037,189.17146c-3.03174,-0.32635 -5.3498,-2.65584 -5.1617,-5.18414c0.1881,-2.53205 2.81044,-4.32511 5.84218,-3.99501c3.03727,0.3301 5.34426,2.65584 5.1617,5.18788c-0.1881,2.5283 -2.79938,4.32511 -5.83664,3.99501zM193.56893,180.9001c-2.43424,-0.26258 -4.531,1.17412 -4.68038,3.20351c-0.14938,2.02939 1.70397,3.89373 4.13821,4.15631c2.42871,0.26258 4.531,-1.17412 4.68038,-3.20351c0.14938,-2.02939 -1.7095,-3.89748 -4.13821,-4.16006z" style="mix-blend-mode: normal"/><path d="M193.05995,187.82103c-2.14103,-0.23257 -3.76754,-1.87184 -3.63477,-3.6574c0.13278,-1.78556 1.97505,-3.04971 4.11055,-2.82089c2.14103,0.23257 3.77308,1.87184 3.6403,3.6574c-0.13278,1.78556 -1.97505,3.04971 -4.11608,2.81714zM193.46934,182.25428c-1.538,-0.16505 -2.8713,0.74274 -2.96535,2.02564c-0.09405,1.2829 1.08435,2.46453 2.62235,2.63333c1.538,0.16505 2.86576,-0.74274 2.95981,-2.02564c0.09405,-1.2829 -1.07881,-2.46453 -2.61681,-2.62958z" style="mix-blend-mode: normal"/><path d="M193.1706,186.35432c-1.16733,-0.12754 -2.06911,-1.02407 -1.99719,-2.00313c0.07192,-0.97906 1.08988,-1.67302 2.25721,-1.54549c1.17286,0.12754 2.06911,1.02782 1.99719,2.00688c-0.07192,0.97906 -1.08988,1.66927 -2.26274,1.54173zM193.36423,183.71724c-0.56984,-0.06002 -1.06775,0.27383 -1.10094,0.75024c-0.0332,0.4764 0.40386,0.91529 0.9737,0.97531c0.56984,0.06002 1.06222,-0.27383 1.10094,-0.75399c0.03873,-0.48015 -0.40386,-0.91529 -0.9737,-0.97531z" style="mix-blend-mode: normal"/></g></g><g><path d="M232.81,176.04232h0.02766l-0.82432,11.18602l-1.29457,-0.13879l-14.15732,-1.35418l0.80219,-10.89719c0,-0.02626 0.00554,-0.04877 0.01106,-0.07127v-0.07127l0.02213,-0.3226h0.02766c0.49238,-3.34605 4.0331,-5.66053 8.13811,-5.21789c4.10501,0.44264 7.2474,3.4811 7.2474,6.88342z" fill="#c15e28"/><path d="M232.81,176.04232h0.02766l-0.82432,11.18602l-1.29457,-0.13879l-14.15732,-1.35418l0.80219,-10.89719c0,-0.02626 0.00554,-0.04877 0.01106,-0.07127v-0.07127l0.02213,-0.3226h0.02766c0.49238,-3.34605 4.0331,-5.66053 8.13811,-5.21789c4.10501,0.44264 7.2474,3.4811 7.2474,6.88342z" fill="#c15e28"/><path d="M232.80447,176.04232h0.02766l-0.82432,11.18602l-1.29457,-0.13879l-6.41754,-0.61519l1.27798,-17.31921c4.09948,0.45389 7.23634,3.48485 7.23634,6.88342z" fill="#a34f24"/><path d="M218.01092,181.34274c-0.62516,-4.66647 0.5809,-8.69524 0.5809,-8.69524c0.87412,3.07972 -0.5809,8.69524 -0.5809,8.69524z" fill="#cd4a42" opacity="0.5" style="mix-blend-mode: screen"/><path d="M220.0745,176.57874c-0.72474,-3.20351 0.38174,-5.90436 0.38174,-5.90436c0.94603,2.12317 -0.38174,5.90436 -0.38174,5.90436z" fill="#cd4a42" opacity="0.5" style="mix-blend-mode: screen"/><path d="M221.5627,179.3021c-0.68048,-3.87872 0.47578,-7.19477 0.47578,-7.19477c0.90731,2.56581 -0.47578,7.19477 -0.47578,7.19477z" fill="#cd4a42" opacity="0.5" style="mix-blend-mode: screen"/><path d="M223.71479,178.13173c-0.56984,-2.98969 0.36514,-5.52925 0.36514,-5.52925c0.75793,1.98063 -0.36514,5.52925 -0.36514,5.52925z" fill="#cd4a42" opacity="0.5" style="mix-blend-mode: screen"/><path d="M226.17116,179.90979c-0.61962,-2.07441 0.2379,-3.7962 0.2379,-3.7962c0.7856,1.38419 -0.2379,3.7962 -0.2379,3.7962z" fill="#914720"/><path d="M228.59987,176.01606c-0.62516,-2.07441 0.23236,-3.7962 0.23236,-3.7962c0.7856,1.38794 -0.23236,3.7962 -0.23236,3.7962z" fill="#914720"/><path d="M229.69528,181.12518c-0.60303,-1.31291 0.13278,-2.367 0.13278,-2.367c0.74134,0.89278 -0.13278,2.367 -0.13278,2.367z" fill="#914720"/><path d="M231.39925,182.7832c-0.61962,-2.07065 0.23789,-3.7962 0.23789,-3.7962c0.78006,1.38794 -0.23789,3.7962 -0.23789,3.7962z" fill="#914720"/><path d="M231.07284,177.94042c-0.47025,-2.59957 0.32641,-4.82027 0.32641,-4.82027c0.64176,1.72179 -0.32641,4.82027 -0.32641,4.82027z" fill="#914720"/><path d="M226.17116,174.44057c-0.47578,-2.59957 0.32088,-4.82027 0.32088,-4.82027c0.64728,1.72179 -0.32088,4.82027 -0.32088,4.82027z" fill="#914720"/><path d="M232.01334,187.22835c-0.26002,3.55987 -3.92798,6.07317 -8.19343,5.61177c-4.26546,-0.4614 -7.50742,-3.72493 -7.24187,-7.2848c0.26002,-3.56363 3.92798,-6.07316 8.19343,-5.61177c4.27099,0.4614 7.50742,3.72117 7.24186,7.28105z" fill="#eac19b"/><path d="M231.83077,187.35214c-0.25449,3.48485 -3.845,5.94188 -8.0164,5.49173c-4.1714,-0.45014 -7.34144,-3.6424 -7.08695,-7.12725c0.25449,-3.48485 3.84499,-5.94188 8.0164,-5.48798c4.17141,0.45014 7.34145,3.6424 7.08696,7.1235z" fill="#a25c2a"/><path d="M230.93453,187.29212c-0.22683,3.06847 -3.39133,5.23665 -7.07036,4.83902c-3.67349,-0.39762 -6.47287,-3.21102 -6.24604,-6.27948c0.22683,-3.07222 3.39134,-5.23665 7.06483,-4.83903c3.67349,0.39762 6.47287,3.21102 6.25158,6.27948z" fill="#eac19b"/><g fill="#a25c2a" style="mix-blend-mode: screen"><path d="M223.92502,191.34715c-3.0262,-0.32636 -5.34426,-2.65208 -5.1617,-5.18414c0.1881,-2.53205 2.81045,-4.32511 5.83664,-3.99501c3.0262,0.32635 5.34426,2.65584 5.1617,5.18789c-0.1881,2.5283 -2.81045,4.32136 -5.83664,3.99126zM224.53358,183.07578c-2.43424,-0.26258 -4.52548,1.17412 -4.67485,3.20726c-0.14938,2.03314 1.69844,3.89373 4.13268,4.15631c2.43424,0.26259 4.531,-1.17412 4.68038,-3.20351c0.14938,-2.02939 -1.70949,-3.89748 -4.1382,-4.16007z" style="mix-blend-mode: normal"/><path d="M224.02461,189.99672c-2.14103,-0.23257 -3.77307,-1.8756 -3.6403,-3.65741c0.13278,-1.78556 1.98058,-3.05346 4.11608,-2.82089c2.14103,0.23258 3.77307,1.8756 3.6403,3.66116c-0.13278,1.78556 -1.98059,3.04971 -4.11608,2.81714zM224.434,184.42621c-1.53246,-0.16505 -2.86024,0.74649 -2.95429,2.03315c-0.09405,1.2829 1.07881,2.46828 2.61127,2.63333c1.54353,0.16505 2.8713,-0.74649 2.96535,-2.02939c0.09405,-1.28666 -1.07881,-2.46828 -2.62235,-2.63708z" style="mix-blend-mode: normal"/><path d="M224.13525,188.53001c-1.17286,-0.12754 -2.06357,-1.02407 -1.99165,-2.00313c0.07192,-0.97906 1.07881,-1.67303 2.25167,-1.54549c1.17286,0.12754 2.06911,1.02782 1.99719,2.00688c-0.07192,0.97906 -1.08988,1.66928 -2.26274,1.54174zM224.32888,185.88918c-0.56984,-0.06002 -1.06221,0.27759 -1.10094,0.75774c-0.03873,0.48015 0.39833,0.91528 0.96816,0.97906c0.56984,0.06377 1.06222,-0.27759 1.10094,-0.75399c0.0332,-0.48015 -0.39833,-0.91904 -0.96817,-0.97905z" style="mix-blend-mode: normal"/></g></g></g></g></svg>